<?xml version="1.0" encoding="utf-8" standalone="no"?>
<!DOCTYPE svg PUBLIC "-//W3C//DTD SVG 1.1//EN"
  "http://www.w3.org/Graphics/SVG/1.1/DTD/svg11.dtd">
<!-- Created with matplotlib (http://matplotlib.org/) -->
<svg height="345pt" version="1.1" viewBox="0 0 460 345" width="460pt" xmlns="http://www.w3.org/2000/svg" xmlns:xlink="http://www.w3.org/1999/xlink">
 <defs>
  <style type="text/css">
*{stroke-linecap:butt;stroke-linejoin:round;}
  </style>
 </defs>
 <g id="figure_1">
  <g id="patch_1">
   <path d="M 0 345.6 
L 460.8 345.6 
L 460.8 0 
L 0 0 
z
" style="fill:#ffffff;"/>
  </g>
  <g id="axes_1">
   <g id="patch_2">
    <path d="M 57.6 119.740235 
L 414.72 119.740235 
L 414.72 41.472 
L 57.6 41.472 
z
" style="fill:#ffffff;"/>
   </g>
   <g id="matplotlib.axis_1">
    <g id="xtick_1">
     <g id="line2d_1">
      <defs>
       <path d="M 0 0 
L 0 3.5 
" id="m9ac5e4ec0b" style="stroke:#000000;stroke-width:0.8;"/>
      </defs>
      <g>
       <use style="stroke:#000000;stroke-width:0.8;" x="73.375474" xlink:href="#m9ac5e4ec0b" y="119.740235"/>
      </g>
     </g>
    </g>
    <g id="xtick_2">
     <g id="line2d_2">
      <g>
       <use style="stroke:#000000;stroke-width:0.8;" x="114.056371" xlink:href="#m9ac5e4ec0b" y="119.740235"/>
      </g>
     </g>
    </g>
    <g id="xtick_3">
     <g id="line2d_3">
      <g>
       <use style="stroke:#000000;stroke-width:0.8;" x="154.737267" xlink:href="#m9ac5e4ec0b" y="119.740235"/>
      </g>
     </g>
    </g>
    <g id="xtick_4">
     <g id="line2d_4">
      <g>
       <use style="stroke:#000000;stroke-width:0.8;" x="195.418164" xlink:href="#m9ac5e4ec0b" y="119.740235"/>
      </g>
     </g>
    </g>
    <g id="xtick_5">
     <g id="line2d_5">
      <g>
       <use style="stroke:#000000;stroke-width:0.8;" x="236.09906" xlink:href="#m9ac5e4ec0b" y="119.740235"/>
      </g>
     </g>
    </g>
    <g id="xtick_6">
     <g id="line2d_6">
      <g>
       <use style="stroke:#000000;stroke-width:0.8;" x="276.779957" xlink:href="#m9ac5e4ec0b" y="119.740235"/>
      </g>
     </g>
    </g>
    <g id="xtick_7">
     <g id="line2d_7">
      <g>
       <use style="stroke:#000000;stroke-width:0.8;" x="317.460853" xlink:href="#m9ac5e4ec0b" y="119.740235"/>
      </g>
     </g>
    </g>
    <g id="xtick_8">
     <g id="line2d_8">
      <g>
       <use style="stroke:#000000;stroke-width:0.8;" x="358.14175" xlink:href="#m9ac5e4ec0b" y="119.740235"/>
      </g>
     </g>
    </g>
    <g id="xtick_9">
     <g id="line2d_9">
      <g>
       <use style="stroke:#000000;stroke-width:0.8;" x="398.822646" xlink:href="#m9ac5e4ec0b" y="119.740235"/>
      </g>
     </g>
    </g>
   </g>
   <g id="matplotlib.axis_2">
    <g id="ytick_1">
     <g id="line2d_10">
      <defs>
       <path d="M 0 0 
L -3.5 0 
" id="me9cb8125c7" style="stroke:#000000;stroke-width:0.8;"/>
      </defs>
      <g>
       <use style="stroke:#000000;stroke-width:0.8;" x="57.6" xlink:href="#me9cb8125c7" y="103.973421"/>
      </g>
     </g>
     <g id="text_1">
      <!-- −2.5 -->
      <defs>
       <path d="M 10.59375 35.5 
L 73.1875 35.5 
L 73.1875 27.203125 
L 10.59375 27.203125 
z
" id="DejaVuSans-2212"/>
       <path d="M 19.1875 8.296875 
L 53.609375 8.296875 
L 53.609375 0 
L 7.328125 0 
L 7.328125 8.296875 
Q 12.9375 14.109375 22.625 23.890625 
Q 32.328125 33.6875 34.8125 36.53125 
Q 39.546875 41.84375 41.421875 45.53125 
Q 43.3125 49.21875 43.3125 52.78125 
Q 43.3125 58.59375 39.234375 62.25 
Q 35.15625 65.921875 28.609375 65.921875 
Q 23.96875 65.921875 18.8125 64.3125 
Q 13.671875 62.703125 7.8125 59.421875 
L 7.8125 69.390625 
Q 13.765625 71.78125 18.9375 73 
Q 24.125 74.21875 28.421875 74.21875 
Q 39.75 74.21875 46.484375 68.546875 
Q 53.21875 62.890625 53.21875 53.421875 
Q 53.21875 48.921875 51.53125 44.890625 
Q 49.859375 40.875 45.40625 35.40625 
Q 44.1875 33.984375 37.640625 27.21875 
Q 31.109375 20.453125 19.1875 8.296875 
z
" id="DejaVuSans-32"/>
       <path d="M 10.6875 12.40625 
L 21 12.40625 
L 21 0 
L 10.6875 0 
z
" id="DejaVuSans-2e"/>
       <path d="M 10.796875 72.90625 
L 49.515625 72.90625 
L 49.515625 64.59375 
L 19.828125 64.59375 
L 19.828125 46.734375 
Q 21.96875 47.46875 24.109375 47.828125 
Q 26.265625 48.1875 28.421875 48.1875 
Q 40.625 48.1875 47.75 41.5 
Q 54.890625 34.8125 54.890625 23.390625 
Q 54.890625 11.625 47.5625 5.09375 
Q 40.234375 -1.421875 26.90625 -1.421875 
Q 22.3125 -1.421875 17.546875 -0.640625 
Q 12.796875 0.140625 7.71875 1.703125 
L 7.71875 11.625 
Q 12.109375 9.234375 16.796875 8.0625 
Q 21.484375 6.890625 26.703125 6.890625 
Q 35.15625 6.890625 40.078125 11.328125 
Q 45.015625 15.765625 45.015625 23.390625 
Q 45.015625 31 40.078125 35.4375 
Q 35.15625 39.890625 26.703125 39.890625 
Q 22.75 39.890625 18.8125 39.015625 
Q 14.890625 38.140625 10.796875 36.28125 
z
" id="DejaVuSans-35"/>
      </defs>
      <g transform="translate(26.317187 107.77264)scale(0.1 -0.1)">
       <use xlink:href="#DejaVuSans-2212"/>
       <use x="83.789062" xlink:href="#DejaVuSans-32"/>
       <use x="147.412109" xlink:href="#DejaVuSans-2e"/>
       <use x="179.199219" xlink:href="#DejaVuSans-35"/>
      </g>
     </g>
    </g>
    <g id="ytick_2">
     <g id="line2d_11">
      <g>
       <use style="stroke:#000000;stroke-width:0.8;" x="57.6" xlink:href="#me9cb8125c7" y="80.183577"/>
      </g>
     </g>
     <g id="text_2">
      <!-- 0.0 -->
      <defs>
       <path d="M 31.78125 66.40625 
Q 24.171875 66.40625 20.328125 58.90625 
Q 16.5 51.421875 16.5 36.375 
Q 16.5 21.390625 20.328125 13.890625 
Q 24.171875 6.390625 31.78125 6.390625 
Q 39.453125 6.390625 43.28125 13.890625 
Q 47.125 21.390625 47.125 36.375 
Q 47.125 51.421875 43.28125 58.90625 
Q 39.453125 66.40625 31.78125 66.40625 
z
M 31.78125 74.21875 
Q 44.046875 74.21875 50.515625 64.515625 
Q 56.984375 54.828125 56.984375 36.375 
Q 56.984375 17.96875 50.515625 8.265625 
Q 44.046875 -1.421875 31.78125 -1.421875 
Q 19.53125 -1.421875 13.0625 8.265625 
Q 6.59375 17.96875 6.59375 36.375 
Q 6.59375 54.828125 13.0625 64.515625 
Q 19.53125 74.21875 31.78125 74.21875 
z
" id="DejaVuSans-30"/>
      </defs>
      <g transform="translate(34.696875 83.982795)scale(0.1 -0.1)">
       <use xlink:href="#DejaVuSans-30"/>
       <use x="63.623047" xlink:href="#DejaVuSans-2e"/>
       <use x="95.410156" xlink:href="#DejaVuSans-30"/>
      </g>
     </g>
    </g>
    <g id="ytick_3">
     <g id="line2d_12">
      <g>
       <use style="stroke:#000000;stroke-width:0.8;" x="57.6" xlink:href="#me9cb8125c7" y="56.393732"/>
      </g>
     </g>
     <g id="text_3">
      <!-- 2.5 -->
      <g transform="translate(34.696875 60.192951)scale(0.1 -0.1)">
       <use xlink:href="#DejaVuSans-32"/>
       <use x="63.623047" xlink:href="#DejaVuSans-2e"/>
       <use x="95.410156" xlink:href="#DejaVuSans-35"/>
      </g>
     </g>
    </g>
    <g id="text_4">
     <!-- x_seis -->
     <defs>
      <path d="M 54.890625 54.6875 
L 35.109375 28.078125 
L 55.90625 0 
L 45.3125 0 
L 29.390625 21.484375 
L 13.484375 0 
L 2.875 0 
L 24.125 28.609375 
L 4.6875 54.6875 
L 15.28125 54.6875 
L 29.78125 35.203125 
L 44.28125 54.6875 
z
" id="DejaVuSans-78"/>
      <path d="M 50.984375 -16.609375 
L 50.984375 -23.578125 
L -0.984375 -23.578125 
L -0.984375 -16.609375 
z
" id="DejaVuSans-5f"/>
      <path d="M 44.28125 53.078125 
L 44.28125 44.578125 
Q 40.484375 46.53125 36.375 47.5 
Q 32.28125 48.484375 27.875 48.484375 
Q 21.1875 48.484375 17.84375 46.4375 
Q 14.5 44.390625 14.5 40.28125 
Q 14.5 37.15625 16.890625 35.375 
Q 19.28125 33.59375 26.515625 31.984375 
L 29.59375 31.296875 
Q 39.15625 29.25 43.1875 25.515625 
Q 47.21875 21.78125 47.21875 15.09375 
Q 47.21875 7.46875 41.1875 3.015625 
Q 35.15625 -1.421875 24.609375 -1.421875 
Q 20.21875 -1.421875 15.453125 -0.5625 
Q 10.6875 0.296875 5.421875 2 
L 5.421875 11.28125 
Q 10.40625 8.6875 15.234375 7.390625 
Q 20.0625 6.109375 24.8125 6.109375 
Q 31.15625 6.109375 34.5625 8.28125 
Q 37.984375 10.453125 37.984375 14.40625 
Q 37.984375 18.0625 35.515625 20.015625 
Q 33.0625 21.96875 24.703125 23.78125 
L 21.578125 24.515625 
Q 13.234375 26.265625 9.515625 29.90625 
Q 5.8125 33.546875 5.8125 39.890625 
Q 5.8125 47.609375 11.28125 51.796875 
Q 16.75 56 26.8125 56 
Q 31.78125 56 36.171875 55.265625 
Q 40.578125 54.546875 44.28125 53.078125 
z
" id="DejaVuSans-73"/>
      <path d="M 56.203125 29.59375 
L 56.203125 25.203125 
L 14.890625 25.203125 
Q 15.484375 15.921875 20.484375 11.0625 
Q 25.484375 6.203125 34.421875 6.203125 
Q 39.59375 6.203125 44.453125 7.46875 
Q 49.3125 8.734375 54.109375 11.28125 
L 54.109375 2.78125 
Q 49.265625 0.734375 44.1875 -0.34375 
Q 39.109375 -1.421875 33.890625 -1.421875 
Q 20.796875 -1.421875 13.15625 6.1875 
Q 5.515625 13.8125 5.515625 26.8125 
Q 5.515625 40.234375 12.765625 48.109375 
Q 20.015625 56 32.328125 56 
Q 43.359375 56 49.78125 48.890625 
Q 56.203125 41.796875 56.203125 29.59375 
z
M 47.21875 32.234375 
Q 47.125 39.59375 43.09375 43.984375 
Q 39.0625 48.390625 32.421875 48.390625 
Q 24.90625 48.390625 20.390625 44.140625 
Q 15.875 39.890625 15.1875 32.171875 
z
" id="DejaVuSans-65"/>
      <path d="M 9.421875 54.6875 
L 18.40625 54.6875 
L 18.40625 0 
L 9.421875 0 
z
M 9.421875 75.984375 
L 18.40625 75.984375 
L 18.40625 64.59375 
L 9.421875 64.59375 
z
" id="DejaVuSans-69"/>
     </defs>
     <g transform="translate(19.959375 95.740493)rotate(-90)scale(0.1 -0.1)">
      <use xlink:href="#DejaVuSans-78"/>
      <use x="59.179688" xlink:href="#DejaVuSans-5f"/>
      <use x="109.179688" xlink:href="#DejaVuSans-73"/>
      <use x="161.279297" xlink:href="#DejaVuSans-65"/>
      <use x="222.802734" xlink:href="#DejaVuSans-69"/>
      <use x="250.585938" xlink:href="#DejaVuSans-73"/>
     </g>
    </g>
   </g>
   <g id="line2d_13">
    <path clip-path="url(#p3238b6377e)" d="M 73.832727 79.235961 
L 74.647159 79.856828 
L 75.4598 79.880608 
L 76.274232 79.547018 
L 77.087036 79.369897 
L 77.901468 79.819592 
L 78.714272 80.017676 
L 79.528541 79.550462 
L 80.341345 79.290411 
L 81.15594 79.546704 
L 81.968744 79.656546 
L 82.783175 79.932242 
L 83.59598 79.629635 
L 84.410411 79.057584 
L 85.223216 79.491625 
L 86.037647 80.085582 
L 86.850289 79.856514 
L 87.664883 79.268505 
L 88.477687 79.276955 
L 89.292119 79.952273 
L 90.10476 79.944451 
L 90.919355 79.368023 
L 92.546591 79.764828 
L 94.173826 79.64998 
L 94.986631 79.382411 
L 95.801062 79.374589 
L 96.613867 79.662179 
L 97.428298 79.705677 
L 98.241102 79.476295 
L 99.055534 79.545771 
L 100.68277 80.042712 
L 101.495574 79.454703 
L 102.310006 79.225636 
L 103.12281 79.900325 
L 103.937242 79.956964 
L 104.750046 79.450012 
L 105.564315 79.114537 
L 106.377282 79.291667 
L 107.191713 80.082146 
L 108.004518 80.18134 
L 108.818949 79.411206 
L 109.631591 78.972778 
L 110.446185 79.37772 
L 111.258827 80.337183 
L 112.073421 80.369109 
L 112.886225 78.991239 
L 113.700657 78.697397 
L 115.327893 80.450784 
L 116.140697 80.003906 
L 116.955128 78.930842 
L 117.768095 78.891731 
L 118.582364 79.984503 
L 119.395657 80.267403 
L 120.209763 79.654671 
L 121.022404 79.222819 
L 121.836836 79.270066 
L 122.64964 79.83555 
L 123.464072 79.893445 
L 125.09147 79.245353 
L 125.903949 79.428725 
L 126.718544 80.035832 
L 127.531185 79.815519 
L 128.345779 79.163668 
L 129.158421 79.416526 
L 129.973015 79.945697 
L 130.785657 79.9022 
L 132.413706 79.193405 
L 133.226836 79.443123 
L 134.040942 79.893131 
L 134.853909 79.738849 
L 136.481145 79.277583 
L 137.295577 79.672818 
L 138.108706 80.237675 
L 138.923138 79.501018 
L 139.735617 78.936789 
L 140.550374 79.666252 
L 141.362853 80.079948 
L 142.990089 79.135196 
L 143.804683 79.291667 
L 144.617162 79.92067 
L 145.431919 79.947267 
L 146.24456 79.243783 
L 147.058992 79.240338 
L 148.686228 80.139413 
L 149.498869 79.878734 
L 150.313464 78.971218 
L 151.126268 79.25661 
L 151.940699 80.38068 
L 152.753504 80.157246 
L 153.568098 79.174935 
L 154.38074 78.918014 
L 155.195334 79.760755 
L 156.007813 80.355025 
L 156.823709 79.48662 
L 157.635211 78.988422 
L 158.449806 79.451259 
L 159.262447 80.129079 
L 160.076879 80.041456 
L 161.704277 78.888914 
L 163.33135 80.419172 
L 164.144643 80.077445 
L 164.958749 79.066349 
L 165.771391 78.890789 
L 166.585822 79.778283 
L 167.398464 80.329675 
L 169.025862 79.176819 
L 169.840294 79.238463 
L 170.653098 79.765446 
L 171.467367 80.117508 
L 172.280171 79.75418 
L 173.094766 79.153971 
L 173.90757 79.263186 
L 174.722002 79.76576 
L 175.534806 79.906587 
L 176.349237 79.479112 
L 177.162042 79.184327 
L 178.789278 79.976053 
L 180.416513 79.4184 
L 181.230945 79.495384 
L 182.043587 79.755122 
L 182.858344 79.863403 
L 183.670985 79.672818 
L 184.485254 79.136129 
L 185.298221 79.252547 
L 186.112653 79.966356 
L 186.925782 80.063362 
L 187.739888 79.323583 
L 188.552693 79.071354 
L 189.367124 79.717886 
L 190.179929 80.198555 
L 191.807164 79.158349 
L 192.621596 79.336411 
L 193.434563 79.819897 
L 194.248995 79.98044 
L 195.875742 79.178694 
L 196.689523 79.20216 
L 197.502978 79.896262 
L 198.317084 80.284617 
L 199.129889 79.583949 
L 199.944157 79.17994 
L 200.75745 79.636829 
L 201.571393 79.893445 
L 202.384198 79.569237 
L 203.198792 79.494756 
L 204.011759 79.715069 
L 204.825865 79.744797 
L 205.638669 79.331719 
L 206.453101 79.339856 
L 207.265742 79.637143 
L 209.707735 79.63151 
L 210.520377 79.274767 
L 211.334646 79.666252 
L 212.147613 79.927864 
L 213.774849 79.404945 
L 214.589443 79.457834 
L 215.402735 79.730085 
L 216.216516 79.565793 
L 217.029483 76.329403 
L 217.843915 71.458528 
L 219.470988 99.399757 
L 220.283792 81.737577 
L 221.098386 55.472723 
L 221.911028 71.834045 
L 222.725622 103.163139 
L 223.538264 90.620305 
L 224.352695 57.363178 
L 225.1655 60.124227 
L 225.979931 93.519355 
L 226.792735 114.318416 
L 228.419971 48.859393 
L 229.234403 54.329554 
L 230.047207 104.902129 
L 230.861639 113.982637 
L 232.488875 45.029647 
L 233.301516 59.665768 
L 234.116273 114.770927 
L 234.929077 110.384166 
L 235.743509 61.366266 
L 236.556313 49.210198 
L 237.370582 74.243348 
L 238.183386 116.182588 
L 238.997818 101.443552 
L 239.810622 52.693193 
L 240.625217 52.626544 
L 241.437858 91.951223 
L 242.25229 113.78048 
L 243.879526 51.352265 
L 244.692493 63.906394 
L 245.507087 104.326957 
L 246.320217 102.446513 
L 247.133184 67.817187 
L 247.947615 57.263042 
L 248.760582 83.674032 
L 249.5742 101.944871 
L 250.388794 83.536337 
L 251.201273 62.489737 
L 252.015868 71.452894 
L 252.828509 98.069771 
L 253.642941 92.50919 
L 254.455908 66.919996 
L 255.270177 63.233274 
L 256.082981 86.426003 
L 256.897412 103.830006 
L 257.710217 83.708765 
L 258.524648 56.231914 
L 259.33729 66.350753 
L 260.152047 99.228575 
L 260.964688 104.808559 
L 261.77912 72.24462 
L 262.592087 52.266042 
L 263.406356 73.664103 
L 264.219323 105.696053 
L 265.033592 100.699387 
L 265.846559 64.666213 
L 266.66099 54.096109 
L 268.288063 106.443035 
L 269.100868 91.171697 
L 269.915299 61.722724 
L 270.728104 62.276304 
L 271.542698 88.994279 
L 272.355339 100.344509 
L 273.982738 63.759639 
L 274.79717 72.546294 
L 275.609974 91.924312 
L 276.424568 91.077498 
L 277.23721 74.392624 
L 278.051641 69.588722 
L 278.864283 82.658244 
L 279.678714 90.53174 
L 281.30595 71.226015 
L 282.119243 77.265705 
L 282.933349 89.357283 
L 283.745828 86.756463 
L 284.561561 72.592304 
L 285.373389 70.64364 
L 286.187821 85.189902 
L 287.000462 93.254298 
L 287.814894 81.021265 
L 288.627698 66.678092 
L 289.442618 73.27513 
L 290.255097 91.545035 
L 291.069528 93.747794 
L 291.882658 75.849667 
L 292.696601 64.556998 
L 293.509568 77.147412 
L 294.324 94.476629 
L 295.136642 91.006157 
L 295.951236 72.040589 
L 296.76404 66.292553 
L 297.578309 81.433714 
L 298.391113 93.936809 
L 299.205545 85.784172 
L 300.018349 70.768812 
L 300.833269 71.30081 
L 301.645585 84.767747 
L 302.460179 90.450065 
L 304.087252 72.340074 
L 304.900057 77.121443 
L 305.714488 85.834864 
L 306.527293 84.728636 
L 307.341724 77.367725 
L 308.154366 76.024284 
L 308.968797 82.23546 
L 309.781927 84.898562 
L 310.596359 79.197783 
L 311.409 75.75641 
L 313.036073 85.718769 
L 313.850668 81.74853 
L 314.663635 75.182171 
L 315.478066 76.34598 
L 316.29087 84.651652 
L 317.105139 87.08975 
L 317.918106 78.604454 
L 318.732375 72.71309 
L 319.545179 78.486162 
L 320.359611 87.269686 
L 321.172415 86.27392 
L 321.986847 76.650471 
L 322.799651 72.737508 
L 324.426887 87.649591 
L 325.241319 84.172544 
L 326.054123 75.884714 
L 326.868554 74.53877 
L 327.681521 81.393661 
L 328.49579 86.416621 
L 329.308595 82.696736 
L 330.122863 76.574429 
L 330.93583 77.024742 
L 331.750262 81.786089 
L 332.563066 83.676535 
L 333.377498 81.151138 
L 334.190302 78.141618 
L 335.004734 79.167427 
L 335.819328 81.462509 
L 336.632132 81.226238 
L 337.444774 79.911278 
L 338.259205 80.492711 
L 339.07201 81.3583 
L 339.886441 80.348136 
L 340.699246 78.952129 
L 341.513677 79.530117 
L 342.32697 82.298361 
L 343.140913 82.877615 
L 343.953717 79.573624 
L 344.768149 77.179024 
L 345.580953 79.435929 
L 346.395385 83.641802 
L 347.208189 83.484713 
L 348.022621 78.473334 
L 348.835425 75.94042 
L 349.650019 79.999529 
L 350.462661 84.644458 
L 351.277092 83.298828 
L 352.089897 78.058687 
L 352.904491 76.335027 
L 354.53189 84.397234 
L 355.344531 83.00372 
L 356.158963 77.962614 
L 356.971604 76.862334 
L 357.786036 80.78938 
L 358.59884 83.77511 
L 359.413272 81.889042 
L 360.225913 78.524968 
L 361.040345 78.376947 
L 361.853312 80.776239 
L 362.667743 82.242036 
L 364.295142 79.677824 
L 365.107784 79.782347 
L 365.922215 80.510554 
L 366.735182 80.711464 
L 367.549451 80.423873 
L 369.17685 81.187432 
L 370.803923 79.131123 
L 371.616564 80.228597 
L 372.431159 81.95632 
L 373.243963 81.604896 
L 374.058394 79.574243 
L 374.871361 78.457681 
L 375.685793 80.219204 
L 376.498597 82.60504 
L 377.313029 81.898739 
L 378.125833 79.037249 
L 378.940265 78.245827 
L 380.567338 82.610674 
L 381.380142 81.891859 
L 382.194736 78.992809 
L 383.007378 78.577543 
L 383.82181 80.538721 
L 384.634451 82.106843 
L 385.449045 81.780142 
L 386.261687 79.66375 
L 387.076119 78.601638 
L 387.889086 80.240178 
L 388.70368 81.627744 
L 389.516159 81.353295 
L 390.330916 80.217016 
L 391.143557 79.352369 
L 391.957989 79.943509 
L 392.791134 81.136427 
L 393.605728 81.292269 
L 395.232964 79.898765 
L 396.045768 79.703488 
L 397.672841 80.986532 
L 398.487273 81.138301 
L 398.487273 81.138301 
" style="fill:none;stroke:#1f77b4;stroke-linecap:square;stroke-width:1.5;"/>
   </g>
   <g id="patch_3">
    <path d="M 57.6 119.740235 
L 57.6 41.472 
" style="fill:none;stroke:#000000;stroke-linecap:square;stroke-linejoin:miter;stroke-width:0.8;"/>
   </g>
   <g id="patch_4">
    <path d="M 414.72 119.740235 
L 414.72 41.472 
" style="fill:none;stroke:#000000;stroke-linecap:square;stroke-linejoin:miter;stroke-width:0.8;"/>
   </g>
   <g id="patch_5">
    <path d="M 57.6 119.740235 
L 414.72 119.740235 
" style="fill:none;stroke:#000000;stroke-linecap:square;stroke-linejoin:miter;stroke-width:0.8;"/>
   </g>
   <g id="patch_6">
    <path d="M 57.6 41.472 
L 414.72 41.472 
" style="fill:none;stroke:#000000;stroke-linecap:square;stroke-linejoin:miter;stroke-width:0.8;"/>
   </g>
   <g id="text_5">
    <!-- Stomp Response -->
    <defs>
     <path d="M 53.515625 70.515625 
L 53.515625 60.890625 
Q 47.90625 63.578125 42.921875 64.890625 
Q 37.9375 66.21875 33.296875 66.21875 
Q 25.25 66.21875 20.875 63.09375 
Q 16.5 59.96875 16.5 54.203125 
Q 16.5 49.359375 19.40625 46.890625 
Q 22.3125 44.4375 30.421875 42.921875 
L 36.375 41.703125 
Q 47.40625 39.59375 52.65625 34.296875 
Q 57.90625 29 57.90625 20.125 
Q 57.90625 9.515625 50.796875 4.046875 
Q 43.703125 -1.421875 29.984375 -1.421875 
Q 24.8125 -1.421875 18.96875 -0.25 
Q 13.140625 0.921875 6.890625 3.21875 
L 6.890625 13.375 
Q 12.890625 10.015625 18.65625 8.296875 
Q 24.421875 6.59375 29.984375 6.59375 
Q 38.421875 6.59375 43.015625 9.90625 
Q 47.609375 13.234375 47.609375 19.390625 
Q 47.609375 24.75 44.3125 27.78125 
Q 41.015625 30.8125 33.5 32.328125 
L 27.484375 33.5 
Q 16.453125 35.6875 11.515625 40.375 
Q 6.59375 45.0625 6.59375 53.421875 
Q 6.59375 63.09375 13.40625 68.65625 
Q 20.21875 74.21875 32.171875 74.21875 
Q 37.3125 74.21875 42.625 73.28125 
Q 47.953125 72.359375 53.515625 70.515625 
z
" id="DejaVuSans-53"/>
     <path d="M 18.3125 70.21875 
L 18.3125 54.6875 
L 36.8125 54.6875 
L 36.8125 47.703125 
L 18.3125 47.703125 
L 18.3125 18.015625 
Q 18.3125 11.328125 20.140625 9.421875 
Q 21.96875 7.515625 27.59375 7.515625 
L 36.8125 7.515625 
L 36.8125 0 
L 27.59375 0 
Q 17.1875 0 13.234375 3.875 
Q 9.28125 7.765625 9.28125 18.015625 
L 9.28125 47.703125 
L 2.6875 47.703125 
L 2.6875 54.6875 
L 9.28125 54.6875 
L 9.28125 70.21875 
z
" id="DejaVuSans-74"/>
     <path d="M 30.609375 48.390625 
Q 23.390625 48.390625 19.1875 42.75 
Q 14.984375 37.109375 14.984375 27.296875 
Q 14.984375 17.484375 19.15625 11.84375 
Q 23.34375 6.203125 30.609375 6.203125 
Q 37.796875 6.203125 41.984375 11.859375 
Q 46.1875 17.53125 46.1875 27.296875 
Q 46.1875 37.015625 41.984375 42.703125 
Q 37.796875 48.390625 30.609375 48.390625 
z
M 30.609375 56 
Q 42.328125 56 49.015625 48.375 
Q 55.71875 40.765625 55.71875 27.296875 
Q 55.71875 13.875 49.015625 6.21875 
Q 42.328125 -1.421875 30.609375 -1.421875 
Q 18.84375 -1.421875 12.171875 6.21875 
Q 5.515625 13.875 5.515625 27.296875 
Q 5.515625 40.765625 12.171875 48.375 
Q 18.84375 56 30.609375 56 
z
" id="DejaVuSans-6f"/>
     <path d="M 52 44.1875 
Q 55.375 50.25 60.0625 53.125 
Q 64.75 56 71.09375 56 
Q 79.640625 56 84.28125 50.015625 
Q 88.921875 44.046875 88.921875 33.015625 
L 88.921875 0 
L 79.890625 0 
L 79.890625 32.71875 
Q 79.890625 40.578125 77.09375 44.375 
Q 74.3125 48.1875 68.609375 48.1875 
Q 61.625 48.1875 57.5625 43.546875 
Q 53.515625 38.921875 53.515625 30.90625 
L 53.515625 0 
L 44.484375 0 
L 44.484375 32.71875 
Q 44.484375 40.625 41.703125 44.40625 
Q 38.921875 48.1875 33.109375 48.1875 
Q 26.21875 48.1875 22.15625 43.53125 
Q 18.109375 38.875 18.109375 30.90625 
L 18.109375 0 
L 9.078125 0 
L 9.078125 54.6875 
L 18.109375 54.6875 
L 18.109375 46.1875 
Q 21.1875 51.21875 25.484375 53.609375 
Q 29.78125 56 35.6875 56 
Q 41.65625 56 45.828125 52.96875 
Q 50 49.953125 52 44.1875 
z
" id="DejaVuSans-6d"/>
     <path d="M 18.109375 8.203125 
L 18.109375 -20.796875 
L 9.078125 -20.796875 
L 9.078125 54.6875 
L 18.109375 54.6875 
L 18.109375 46.390625 
Q 20.953125 51.265625 25.265625 53.625 
Q 29.59375 56 35.59375 56 
Q 45.5625 56 51.78125 48.09375 
Q 58.015625 40.1875 58.015625 27.296875 
Q 58.015625 14.40625 51.78125 6.484375 
Q 45.5625 -1.421875 35.59375 -1.421875 
Q 29.59375 -1.421875 25.265625 0.953125 
Q 20.953125 3.328125 18.109375 8.203125 
z
M 48.6875 27.296875 
Q 48.6875 37.203125 44.609375 42.84375 
Q 40.53125 48.484375 33.40625 48.484375 
Q 26.265625 48.484375 22.1875 42.84375 
Q 18.109375 37.203125 18.109375 27.296875 
Q 18.109375 17.390625 22.1875 11.75 
Q 26.265625 6.109375 33.40625 6.109375 
Q 40.53125 6.109375 44.609375 11.75 
Q 48.6875 17.390625 48.6875 27.296875 
z
" id="DejaVuSans-70"/>
     <path id="DejaVuSans-20"/>
     <path d="M 44.390625 34.1875 
Q 47.5625 33.109375 50.5625 29.59375 
Q 53.5625 26.078125 56.59375 19.921875 
L 66.609375 0 
L 56 0 
L 46.6875 18.703125 
Q 43.0625 26.03125 39.671875 28.421875 
Q 36.28125 30.8125 30.421875 30.8125 
L 19.671875 30.8125 
L 19.671875 0 
L 9.8125 0 
L 9.8125 72.90625 
L 32.078125 72.90625 
Q 44.578125 72.90625 50.734375 67.671875 
Q 56.890625 62.453125 56.890625 51.90625 
Q 56.890625 45.015625 53.6875 40.46875 
Q 50.484375 35.9375 44.390625 34.1875 
z
M 19.671875 64.796875 
L 19.671875 38.921875 
L 32.078125 38.921875 
Q 39.203125 38.921875 42.84375 42.21875 
Q 46.484375 45.515625 46.484375 51.90625 
Q 46.484375 58.296875 42.84375 61.546875 
Q 39.203125 64.796875 32.078125 64.796875 
z
" id="DejaVuSans-52"/>
     <path d="M 54.890625 33.015625 
L 54.890625 0 
L 45.90625 0 
L 45.90625 32.71875 
Q 45.90625 40.484375 42.875 44.328125 
Q 39.84375 48.1875 33.796875 48.1875 
Q 26.515625 48.1875 22.3125 43.546875 
Q 18.109375 38.921875 18.109375 30.90625 
L 18.109375 0 
L 9.078125 0 
L 9.078125 54.6875 
L 18.109375 54.6875 
L 18.109375 46.1875 
Q 21.34375 51.125 25.703125 53.5625 
Q 30.078125 56 35.796875 56 
Q 45.21875 56 50.046875 50.171875 
Q 54.890625 44.34375 54.890625 33.015625 
z
" id="DejaVuSans-6e"/>
    </defs>
    <g transform="translate(185.684062 35.472)scale(0.12 -0.12)">
     <use xlink:href="#DejaVuSans-53"/>
     <use x="63.476562" xlink:href="#DejaVuSans-74"/>
     <use x="102.685547" xlink:href="#DejaVuSans-6f"/>
     <use x="163.867188" xlink:href="#DejaVuSans-6d"/>
     <use x="261.279297" xlink:href="#DejaVuSans-70"/>
     <use x="324.755859" xlink:href="#DejaVuSans-20"/>
     <use x="356.542969" xlink:href="#DejaVuSans-52"/>
     <use x="425.962891" xlink:href="#DejaVuSans-65"/>
     <use x="487.486328" xlink:href="#DejaVuSans-73"/>
     <use x="539.585938" xlink:href="#DejaVuSans-70"/>
     <use x="603.0625" xlink:href="#DejaVuSans-6f"/>
     <use x="664.244141" xlink:href="#DejaVuSans-6e"/>
     <use x="727.623047" xlink:href="#DejaVuSans-73"/>
     <use x="779.722656" xlink:href="#DejaVuSans-65"/>
    </g>
   </g>
  </g>
  <g id="axes_2">
   <g id="patch_7">
    <path d="M 57.6 213.662118 
L 414.72 213.662118 
L 414.72 135.393882 
L 57.6 135.393882 
z
" style="fill:#ffffff;"/>
   </g>
   <g id="matplotlib.axis_3">
    <g id="xtick_10">
     <g id="line2d_14">
      <g>
       <use style="stroke:#000000;stroke-width:0.8;" x="73.375474" xlink:href="#m9ac5e4ec0b" y="213.662118"/>
      </g>
     </g>
    </g>
    <g id="xtick_11">
     <g id="line2d_15">
      <g>
       <use style="stroke:#000000;stroke-width:0.8;" x="114.056371" xlink:href="#m9ac5e4ec0b" y="213.662118"/>
      </g>
     </g>
    </g>
    <g id="xtick_12">
     <g id="line2d_16">
      <g>
       <use style="stroke:#000000;stroke-width:0.8;" x="154.737267" xlink:href="#m9ac5e4ec0b" y="213.662118"/>
      </g>
     </g>
    </g>
    <g id="xtick_13">
     <g id="line2d_17">
      <g>
       <use style="stroke:#000000;stroke-width:0.8;" x="195.418164" xlink:href="#m9ac5e4ec0b" y="213.662118"/>
      </g>
     </g>
    </g>
    <g id="xtick_14">
     <g id="line2d_18">
      <g>
       <use style="stroke:#000000;stroke-width:0.8;" x="236.09906" xlink:href="#m9ac5e4ec0b" y="213.662118"/>
      </g>
     </g>
    </g>
    <g id="xtick_15">
     <g id="line2d_19">
      <g>
       <use style="stroke:#000000;stroke-width:0.8;" x="276.779957" xlink:href="#m9ac5e4ec0b" y="213.662118"/>
      </g>
     </g>
    </g>
    <g id="xtick_16">
     <g id="line2d_20">
      <g>
       <use style="stroke:#000000;stroke-width:0.8;" x="317.460853" xlink:href="#m9ac5e4ec0b" y="213.662118"/>
      </g>
     </g>
    </g>
    <g id="xtick_17">
     <g id="line2d_21">
      <g>
       <use style="stroke:#000000;stroke-width:0.8;" x="358.14175" xlink:href="#m9ac5e4ec0b" y="213.662118"/>
      </g>
     </g>
    </g>
    <g id="xtick_18">
     <g id="line2d_22">
      <g>
       <use style="stroke:#000000;stroke-width:0.8;" x="398.822646" xlink:href="#m9ac5e4ec0b" y="213.662118"/>
      </g>
     </g>
    </g>
   </g>
   <g id="matplotlib.axis_4">
    <g id="ytick_4">
     <g id="line2d_23">
      <g>
       <use style="stroke:#000000;stroke-width:0.8;" x="57.6" xlink:href="#me9cb8125c7" y="206.059073"/>
      </g>
     </g>
     <g id="text_6">
      <!-- 2.0 -->
      <g transform="translate(34.696875 209.858291)scale(0.1 -0.1)">
       <use xlink:href="#DejaVuSans-32"/>
       <use x="63.623047" xlink:href="#DejaVuSans-2e"/>
       <use x="95.410156" xlink:href="#DejaVuSans-30"/>
      </g>
     </g>
    </g>
    <g id="ytick_5">
     <g id="line2d_24">
      <g>
       <use style="stroke:#000000;stroke-width:0.8;" x="57.6" xlink:href="#me9cb8125c7" y="166.086363"/>
      </g>
     </g>
     <g id="text_7">
      <!-- 2.5 -->
      <g transform="translate(34.696875 169.885582)scale(0.1 -0.1)">
       <use xlink:href="#DejaVuSans-32"/>
       <use x="63.623047" xlink:href="#DejaVuSans-2e"/>
       <use x="95.410156" xlink:href="#DejaVuSans-35"/>
      </g>
     </g>
    </g>
    <g id="text_8">
     <!-- top -->
     <g transform="translate(28.617188 182.72175)rotate(-90)scale(0.1 -0.1)">
      <use xlink:href="#DejaVuSans-74"/>
      <use x="39.208984" xlink:href="#DejaVuSans-6f"/>
      <use x="100.390625" xlink:href="#DejaVuSans-70"/>
     </g>
    </g>
   </g>
   <g id="line2d_25">
    <path clip-path="url(#pe14ac1ad3b)" d="M 73.832727 182.883136 
L 74.647159 161.761316 
L 75.4598 159.63173 
L 76.274232 180.614285 
L 77.087036 189.7897 
L 77.901468 172.387981 
L 78.714272 170.082275 
L 79.528541 169.288337 
L 80.341345 174.262461 
L 81.15594 181.019128 
L 81.968744 181.892052 
L 82.783175 164.427176 
L 83.59598 160.578204 
L 84.410411 184.423764 
L 85.223216 188.711796 
L 86.850289 163.194178 
L 87.664883 168.817699 
L 88.477687 172.41948 
L 89.292119 182.909438 
L 90.10476 184.78136 
L 90.919355 166.243856 
L 91.732159 163.383409 
L 92.546591 178.950061 
L 93.359232 189.182435 
L 94.173826 169.779922 
L 94.986631 164.713701 
L 95.801062 169.701096 
L 97.428298 184.870739 
L 98.241102 182.693905 
L 99.055534 166.835372 
L 99.868176 157.063164 
L 100.68277 179.37601 
L 101.495574 187.925693 
L 102.310006 175.540229 
L 103.12281 165.102875 
L 103.937242 172.119764 
L 104.750046 177.596105 
L 106.377282 181.447716 
L 107.191713 164.603296 
L 108.004518 161.71135 
L 109.631591 192.878871 
L 110.446185 175.987124 
L 111.258827 163.717341 
L 112.073421 169.527534 
L 112.886225 174.388695 
L 113.700657 181.100673 
L 114.513624 179.957053 
L 116.140697 161.937436 
L 116.955128 179.78613 
L 117.768095 189.931683 
L 118.582364 174.110005 
L 119.395657 161.850695 
L 120.209763 168.018484 
L 121.022404 179.691475 
L 121.836836 180.992906 
L 122.64964 184.131963 
L 123.464072 169.29881 
L 124.276876 161.527316 
L 125.903949 188.956269 
L 127.531185 161.832308 
L 128.345779 173.000523 
L 129.158421 179.841372 
L 129.973015 182.24693 
L 130.785657 177.724977 
L 132.413706 160.136506 
L 133.226836 174.725185 
L 134.040942 192.68956 
L 135.668341 164.353546 
L 136.481145 167.37964 
L 137.295577 180.380284 
L 138.108706 178.308579 
L 138.923138 177.890624 
L 139.735617 170.232173 
L 140.550374 164.116908 
L 142.177284 190.47851 
L 142.990089 179.539019 
L 143.804683 158.829878 
L 144.617162 167.447994 
L 145.431919 179.186699 
L 146.24456 182.864748 
L 147.058992 178.921201 
L 147.871633 171.586129 
L 148.686228 165.342072 
L 149.498869 173.103093 
L 150.313464 189.784424 
L 151.940699 161.884832 
L 152.753504 167.355977 
L 153.568098 184.192482 
L 154.38074 183.564111 
L 156.007813 170.542361 
L 156.823709 162.163522 
L 157.635211 173.857618 
L 158.449806 188.241158 
L 159.262447 182.336309 
L 160.076879 162.292394 
L 160.889846 168.586337 
L 161.704277 183.012008 
L 162.516919 181.80787 
L 164.144643 167.997459 
L 164.958749 166.782768 
L 165.771391 174.180997 
L 166.585822 191.711588 
L 167.398464 181.55812 
L 168.213058 162.40016 
L 169.025862 164.926675 
L 169.840294 180.587983 
L 170.653098 183.732396 
L 171.467367 174.709436 
L 172.280171 172.62454 
L 173.094766 167.04307 
L 173.90757 176.473512 
L 174.722002 187.778513 
L 175.534806 180.330319 
L 176.349237 160.39417 
L 177.162042 164.500806 
L 177.976473 185.023195 
L 178.789278 184.592049 
L 179.603709 177.622407 
L 180.416513 169.530172 
L 181.230945 168.052621 
L 182.043587 171.780636 
L 182.858344 187.034461 
L 183.670985 181.823699 
L 184.485254 162.794531 
L 185.298221 167.158751 
L 186.112653 184.184567 
L 186.925782 187.192194 
L 187.739888 171.65712 
L 188.552693 168.686268 
L 189.367124 166.927389 
L 190.179929 174.583202 
L 190.99436 188.070314 
L 191.807164 183.779644 
L 192.621596 165.184339 
L 193.434563 162.799807 
L 194.248995 183.974231 
L 195.062775 184.008447 
L 195.875742 173.607868 
L 196.689523 167.739795 
L 197.502978 171.110213 
L 198.317084 176.859968 
L 199.129889 186.403452 
L 199.944157 183.012008 
L 200.75745 161.55098 
L 201.571393 163.73309 
L 202.384198 181.986628 
L 203.198792 188.493545 
L 204.011759 173.636729 
L 204.825865 169.293534 
L 205.638669 171.820049 
L 206.453101 174.867168 
L 207.265742 184.673593 
L 208.081476 179.828181 
L 208.893141 165.31577 
L 209.707735 162.95754 
L 210.520377 185.851349 
L 211.334646 188.972098 
L 212.147613 173.620979 
L 212.962044 166.388477 
L 213.774849 169.585414 
L 214.589443 176.615495 
L 215.402735 182.365249 
L 216.216516 183.874299 
L 217.029483 165.941502 
L 217.843915 165.360459 
L 219.470988 199.869538 
L 220.283792 159.25055 
L 221.098386 147.106921 
L 221.911028 188.459408 
L 222.725622 198.4314 
L 223.538264 181.216354 
L 224.352695 159.424032 
L 225.1655 170.989336 
L 225.979931 159.395172 
L 226.792735 193.028689 
L 227.607167 196.291341 
L 228.419971 163.012702 
L 229.234403 152.251969 
L 230.047207 181.715853 
L 230.861639 204.780585 
L 231.674443 168.178855 
L 232.488875 165.231667 
L 233.301516 159.978773 
L 234.116273 174.325618 
L 234.929077 192.410871 
L 235.743509 200.153425 
L 236.556313 162.765591 
L 237.370582 138.951529 
L 238.183386 187.263185 
L 238.997818 196.667325 
L 239.810622 181.626474 
L 240.625217 155.044062 
L 241.437858 171.204869 
L 242.25229 174.869807 
L 243.065094 191.677371 
L 243.879526 193.893698 
L 244.692493 153.306209 
L 245.507087 151.381763 
L 246.320217 177.270088 
L 247.133184 210.104471 
L 247.947615 174.554342 
L 248.760582 163.927677 
L 249.5742 163.767307 
L 250.388794 173.126757 
L 251.201273 189.839666 
L 252.015868 186.030187 
L 252.828509 167.776569 
L 253.642941 145.305991 
L 254.455908 190.691485 
L 255.270177 199.901037 
L 256.082981 179.652062 
L 256.897412 154.920467 
L 257.710217 162.684126 
L 258.524648 176.704874 
L 259.33729 184.413291 
L 260.152047 199.753857 
L 260.964688 162.042644 
L 261.77912 155.488399 
L 262.592087 174.848781 
L 263.406356 204.094414 
L 264.219323 173.786626 
L 265.033592 155.693459 
L 265.846559 169.346138 
L 266.66099 176.255341 
L 267.473632 194.798041 
L 268.288063 187.071236 
L 269.100868 170.510783 
L 269.915299 140.791873 
L 270.728104 176.994036 
L 271.542698 202.658914 
L 273.169771 162.295032 
L 273.982738 162.989038 
L 274.79717 183.372162 
L 275.609974 179.670449 
L 276.424568 192.581794 
L 277.23721 161.014626 
L 278.051641 151.710418 
L 278.864283 177.306943 
L 279.678714 207.430696 
L 280.491682 185.961834 
L 281.30595 151.171426 
L 282.119243 165.975719 
L 282.933349 171.346852 
L 283.745828 190.599467 
L 284.561561 185.259833 
L 285.373389 174.159971 
L 286.187821 151.665729 
L 287.000462 175.027539 
L 287.814894 207.041602 
L 288.627698 176.392047 
L 289.442618 155.627664 
L 290.255097 156.561027 
L 291.069528 188.209659 
L 291.882658 186.153703 
L 292.696601 191.722061 
L 293.509568 168.943932 
L 294.324 149.336359 
L 295.951236 198.231617 
L 296.76404 187.731186 
L 297.578309 149.370496 
L 298.391113 170.190042 
L 299.205545 183.361689 
L 300.018349 190.63888 
L 300.833269 180.146284 
L 301.645585 164.513917 
L 302.460179 154.281623 
L 303.272821 168.546924 
L 304.087252 209.297342 
L 305.714488 160.131309 
L 306.527293 157.988612 
L 307.341724 184.12149 
L 308.154366 183.472094 
L 308.968797 179.252414 
L 309.781927 172.440505 
L 310.596359 154.27107 
L 311.409 179.168312 
L 312.223594 198.660124 
L 313.036073 189.787062 
L 313.850668 146.073707 
L 314.663635 159.25055 
L 315.478066 184.076801 
L 316.29087 187.978297 
L 317.105139 185.906591 
L 317.918106 168.483847 
L 318.732375 162.697237 
L 319.545179 164.135375 
L 320.359611 201.220856 
L 321.172415 181.800035 
L 321.986847 154.636581 
L 322.799651 160.007714 
L 323.614408 187.699607 
L 324.426887 194.68236 
L 325.241319 175.548064 
L 326.054123 171.047137 
L 326.868554 150.527306 
L 328.49579 195.615723 
L 329.308595 193.323128 
L 330.122863 156.626742 
L 330.93583 157.444344 
L 331.750262 189.119278 
L 332.563066 184.649929 
L 333.377498 179.17095 
L 334.190302 161.461601 
L 335.004734 163.93815 
L 335.819328 169.793113 
L 336.632132 202.043734 
L 337.444774 191.06483 
L 338.259205 152.412339 
L 339.07201 155.551476 
L 339.886441 179.872871 
L 340.699246 195.163471 
L 341.513677 173.158255 
L 342.32697 173.797179 
L 343.140913 161.398524 
L 343.953717 172.503662 
L 344.768149 194.519351 
L 345.580953 186.477082 
L 346.395385 155.167578 
L 347.208189 148.77898 
L 348.022621 192.39776 
L 348.835425 193.110233 
L 349.650019 181.537095 
L 350.462661 162.747203 
L 351.277092 161.969014 
L 352.089897 168.452268 
L 352.904491 189.621415 
L 353.717133 192.744803 
L 354.53189 155.504148 
L 355.344531 160.523042 
L 356.158963 183.256481 
L 356.971604 198.152711 
L 357.786036 169.866662 
L 358.59884 162.174074 
L 359.413272 162.158325 
L 360.225913 170.263671 
L 361.040345 197.392909 
L 361.853312 189.237597 
L 362.667743 163.851409 
L 363.481036 147.509127 
L 364.295142 184.957479 
L 365.107784 190.941234 
L 365.922215 174.45441 
L 366.735182 164.193176 
L 367.549451 164.937228 
L 368.362255 178.376932 
L 369.17685 187.978297 
L 369.989491 192.38193 
L 370.803923 151.894453 
L 371.616564 152.251969 
L 372.431159 180.864034 
L 373.243963 200.050935 
L 374.058394 177.406874 
L 374.871361 161.174997 
L 375.685793 168.591613 
L 376.498597 168.276148 
L 377.313029 190.709872 
L 378.125833 182.717569 
L 378.940265 163.241426 
L 379.752906 151.47378 
L 380.567338 185.856626 
L 381.380142 201.373312 
L 382.194736 172.942722 
L 383.007378 159.934084 
L 383.82181 157.99125 
L 384.634451 177.672373 
L 386.261687 193.746439 
L 387.076119 161.729738 
L 387.889086 153.52446 
L 388.70368 182.168104 
L 389.516159 194.84273 
L 390.330916 175.390331 
L 391.143557 152.643701 
L 391.957989 170.284697 
L 392.791134 175.792617 
L 393.605728 193.55449 
L 394.418369 186.513937 
L 395.232964 161.001515 
L 396.045768 149.607134 
L 397.672841 202.666829 
L 398.487273 173.620979 
L 398.487273 173.620979 
" style="fill:none;stroke:#1f77b4;stroke-linecap:square;stroke-width:1.5;"/>
   </g>
   <g id="patch_8">
    <path d="M 57.6 213.662118 
L 57.6 135.393882 
" style="fill:none;stroke:#000000;stroke-linecap:square;stroke-linejoin:miter;stroke-width:0.8;"/>
   </g>
   <g id="patch_9">
    <path d="M 414.72 213.662118 
L 414.72 135.393882 
" style="fill:none;stroke:#000000;stroke-linecap:square;stroke-linejoin:miter;stroke-width:0.8;"/>
   </g>
   <g id="patch_10">
    <path d="M 57.6 213.662118 
L 414.72 213.662118 
" style="fill:none;stroke:#000000;stroke-linecap:square;stroke-linejoin:miter;stroke-width:0.8;"/>
   </g>
   <g id="patch_11">
    <path d="M 57.6 135.393882 
L 414.72 135.393882 
" style="fill:none;stroke:#000000;stroke-linecap:square;stroke-linejoin:miter;stroke-width:0.8;"/>
   </g>
  </g>
  <g id="axes_3">
   <g id="patch_12">
    <path d="M 57.6 307.584 
L 414.72 307.584 
L 414.72 229.315765 
L 57.6 229.315765 
z
" style="fill:#ffffff;"/>
   </g>
   <g id="matplotlib.axis_5">
    <g id="xtick_19">
     <g id="line2d_26">
      <g>
       <use style="stroke:#000000;stroke-width:0.8;" x="73.375474" xlink:href="#m9ac5e4ec0b" y="307.584"/>
      </g>
     </g>
     <g id="text_9">
      <!-- 2.50 -->
      <g transform="translate(62.242661 322.182437)scale(0.1 -0.1)">
       <use xlink:href="#DejaVuSans-32"/>
       <use x="63.623047" xlink:href="#DejaVuSans-2e"/>
       <use x="95.410156" xlink:href="#DejaVuSans-35"/>
       <use x="159.033203" xlink:href="#DejaVuSans-30"/>
      </g>
     </g>
    </g>
    <g id="xtick_20">
     <g id="line2d_27">
      <g>
       <use style="stroke:#000000;stroke-width:0.8;" x="114.056371" xlink:href="#m9ac5e4ec0b" y="307.584"/>
      </g>
     </g>
     <g id="text_10">
      <!-- 2.75 -->
      <defs>
       <path d="M 8.203125 72.90625 
L 55.078125 72.90625 
L 55.078125 68.703125 
L 28.609375 0 
L 18.3125 0 
L 43.21875 64.59375 
L 8.203125 64.59375 
z
" id="DejaVuSans-37"/>
      </defs>
      <g transform="translate(102.923558 322.182437)scale(0.1 -0.1)">
       <use xlink:href="#DejaVuSans-32"/>
       <use x="63.623047" xlink:href="#DejaVuSans-2e"/>
       <use x="95.410156" xlink:href="#DejaVuSans-37"/>
       <use x="159.033203" xlink:href="#DejaVuSans-35"/>
      </g>
     </g>
    </g>
    <g id="xtick_21">
     <g id="line2d_28">
      <g>
       <use style="stroke:#000000;stroke-width:0.8;" x="154.737267" xlink:href="#m9ac5e4ec0b" y="307.584"/>
      </g>
     </g>
     <g id="text_11">
      <!-- 3.00 -->
      <defs>
       <path d="M 40.578125 39.3125 
Q 47.65625 37.796875 51.625 33 
Q 55.609375 28.21875 55.609375 21.1875 
Q 55.609375 10.40625 48.1875 4.484375 
Q 40.765625 -1.421875 27.09375 -1.421875 
Q 22.515625 -1.421875 17.65625 -0.515625 
Q 12.796875 0.390625 7.625 2.203125 
L 7.625 11.71875 
Q 11.71875 9.328125 16.59375 8.109375 
Q 21.484375 6.890625 26.8125 6.890625 
Q 36.078125 6.890625 40.9375 10.546875 
Q 45.796875 14.203125 45.796875 21.1875 
Q 45.796875 27.640625 41.28125 31.265625 
Q 36.765625 34.90625 28.71875 34.90625 
L 20.21875 34.90625 
L 20.21875 43.015625 
L 29.109375 43.015625 
Q 36.375 43.015625 40.234375 45.921875 
Q 44.09375 48.828125 44.09375 54.296875 
Q 44.09375 59.90625 40.109375 62.90625 
Q 36.140625 65.921875 28.71875 65.921875 
Q 24.65625 65.921875 20.015625 65.03125 
Q 15.375 64.15625 9.8125 62.3125 
L 9.8125 71.09375 
Q 15.4375 72.65625 20.34375 73.4375 
Q 25.25 74.21875 29.59375 74.21875 
Q 40.828125 74.21875 47.359375 69.109375 
Q 53.90625 64.015625 53.90625 55.328125 
Q 53.90625 49.265625 50.4375 45.09375 
Q 46.96875 40.921875 40.578125 39.3125 
z
" id="DejaVuSans-33"/>
      </defs>
      <g transform="translate(143.604455 322.182437)scale(0.1 -0.1)">
       <use xlink:href="#DejaVuSans-33"/>
       <use x="63.623047" xlink:href="#DejaVuSans-2e"/>
       <use x="95.410156" xlink:href="#DejaVuSans-30"/>
       <use x="159.033203" xlink:href="#DejaVuSans-30"/>
      </g>
     </g>
    </g>
    <g id="xtick_22">
     <g id="line2d_29">
      <g>
       <use style="stroke:#000000;stroke-width:0.8;" x="195.418164" xlink:href="#m9ac5e4ec0b" y="307.584"/>
      </g>
     </g>
     <g id="text_12">
      <!-- 3.25 -->
      <g transform="translate(184.285351 322.182437)scale(0.1 -0.1)">
       <use xlink:href="#DejaVuSans-33"/>
       <use x="63.623047" xlink:href="#DejaVuSans-2e"/>
       <use x="95.410156" xlink:href="#DejaVuSans-32"/>
       <use x="159.033203" xlink:href="#DejaVuSans-35"/>
      </g>
     </g>
    </g>
    <g id="xtick_23">
     <g id="line2d_30">
      <g>
       <use style="stroke:#000000;stroke-width:0.8;" x="236.09906" xlink:href="#m9ac5e4ec0b" y="307.584"/>
      </g>
     </g>
     <g id="text_13">
      <!-- 3.50 -->
      <g transform="translate(224.966248 322.182437)scale(0.1 -0.1)">
       <use xlink:href="#DejaVuSans-33"/>
       <use x="63.623047" xlink:href="#DejaVuSans-2e"/>
       <use x="95.410156" xlink:href="#DejaVuSans-35"/>
       <use x="159.033203" xlink:href="#DejaVuSans-30"/>
      </g>
     </g>
    </g>
    <g id="xtick_24">
     <g id="line2d_31">
      <g>
       <use style="stroke:#000000;stroke-width:0.8;" x="276.779957" xlink:href="#m9ac5e4ec0b" y="307.584"/>
      </g>
     </g>
     <g id="text_14">
      <!-- 3.75 -->
      <g transform="translate(265.647144 322.182437)scale(0.1 -0.1)">
       <use xlink:href="#DejaVuSans-33"/>
       <use x="63.623047" xlink:href="#DejaVuSans-2e"/>
       <use x="95.410156" xlink:href="#DejaVuSans-37"/>
       <use x="159.033203" xlink:href="#DejaVuSans-35"/>
      </g>
     </g>
    </g>
    <g id="xtick_25">
     <g id="line2d_32">
      <g>
       <use style="stroke:#000000;stroke-width:0.8;" x="317.460853" xlink:href="#m9ac5e4ec0b" y="307.584"/>
      </g>
     </g>
     <g id="text_15">
      <!-- 4.00 -->
      <defs>
       <path d="M 37.796875 64.3125 
L 12.890625 25.390625 
L 37.796875 25.390625 
z
M 35.203125 72.90625 
L 47.609375 72.90625 
L 47.609375 25.390625 
L 58.015625 25.390625 
L 58.015625 17.1875 
L 47.609375 17.1875 
L 47.609375 0 
L 37.796875 0 
L 37.796875 17.1875 
L 4.890625 17.1875 
L 4.890625 26.703125 
z
" id="DejaVuSans-34"/>
      </defs>
      <g transform="translate(306.328041 322.182437)scale(0.1 -0.1)">
       <use xlink:href="#DejaVuSans-34"/>
       <use x="63.623047" xlink:href="#DejaVuSans-2e"/>
       <use x="95.410156" xlink:href="#DejaVuSans-30"/>
       <use x="159.033203" xlink:href="#DejaVuSans-30"/>
      </g>
     </g>
    </g>
    <g id="xtick_26">
     <g id="line2d_33">
      <g>
       <use style="stroke:#000000;stroke-width:0.8;" x="358.14175" xlink:href="#m9ac5e4ec0b" y="307.584"/>
      </g>
     </g>
     <g id="text_16">
      <!-- 4.25 -->
      <g transform="translate(347.008937 322.182437)scale(0.1 -0.1)">
       <use xlink:href="#DejaVuSans-34"/>
       <use x="63.623047" xlink:href="#DejaVuSans-2e"/>
       <use x="95.410156" xlink:href="#DejaVuSans-32"/>
       <use x="159.033203" xlink:href="#DejaVuSans-35"/>
      </g>
     </g>
    </g>
    <g id="xtick_27">
     <g id="line2d_34">
      <g>
       <use style="stroke:#000000;stroke-width:0.8;" x="398.822646" xlink:href="#m9ac5e4ec0b" y="307.584"/>
      </g>
     </g>
     <g id="text_17">
      <!-- 4.50 -->
      <g transform="translate(387.689834 322.182437)scale(0.1 -0.1)">
       <use xlink:href="#DejaVuSans-34"/>
       <use x="63.623047" xlink:href="#DejaVuSans-2e"/>
       <use x="95.410156" xlink:href="#DejaVuSans-35"/>
       <use x="159.033203" xlink:href="#DejaVuSans-30"/>
      </g>
     </g>
    </g>
    <g id="text_18">
     <!-- Time (s) -->
     <defs>
      <path d="M -0.296875 72.90625 
L 61.375 72.90625 
L 61.375 64.59375 
L 35.5 64.59375 
L 35.5 0 
L 25.59375 0 
L 25.59375 64.59375 
L -0.296875 64.59375 
z
" id="DejaVuSans-54"/>
      <path d="M 31 75.875 
Q 24.46875 64.65625 21.28125 53.65625 
Q 18.109375 42.671875 18.109375 31.390625 
Q 18.109375 20.125 21.3125 9.0625 
Q 24.515625 -2 31 -13.1875 
L 23.1875 -13.1875 
Q 15.875 -1.703125 12.234375 9.375 
Q 8.59375 20.453125 8.59375 31.390625 
Q 8.59375 42.28125 12.203125 53.3125 
Q 15.828125 64.359375 23.1875 75.875 
z
" id="DejaVuSans-28"/>
      <path d="M 8.015625 75.875 
L 15.828125 75.875 
Q 23.140625 64.359375 26.78125 53.3125 
Q 30.421875 42.28125 30.421875 31.390625 
Q 30.421875 20.453125 26.78125 9.375 
Q 23.140625 -1.703125 15.828125 -13.1875 
L 8.015625 -13.1875 
Q 14.5 -2 17.703125 9.0625 
Q 20.90625 20.125 20.90625 31.390625 
Q 20.90625 42.671875 17.703125 53.65625 
Q 14.5 64.65625 8.015625 75.875 
z
" id="DejaVuSans-29"/>
     </defs>
     <g transform="translate(215.677188 335.860562)scale(0.1 -0.1)">
      <use xlink:href="#DejaVuSans-54"/>
      <use x="61.037109" xlink:href="#DejaVuSans-69"/>
      <use x="88.820312" xlink:href="#DejaVuSans-6d"/>
      <use x="186.232422" xlink:href="#DejaVuSans-65"/>
      <use x="247.755859" xlink:href="#DejaVuSans-20"/>
      <use x="279.542969" xlink:href="#DejaVuSans-28"/>
      <use x="318.556641" xlink:href="#DejaVuSans-73"/>
      <use x="370.65625" xlink:href="#DejaVuSans-29"/>
     </g>
    </g>
   </g>
   <g id="matplotlib.axis_6">
    <g id="ytick_6">
     <g id="line2d_35">
      <g>
       <use style="stroke:#000000;stroke-width:0.8;" x="57.6" xlink:href="#me9cb8125c7" y="284.609146"/>
      </g>
     </g>
     <g id="text_19">
      <!-- −3.45 -->
      <g transform="translate(19.954687 288.408365)scale(0.1 -0.1)">
       <use xlink:href="#DejaVuSans-2212"/>
       <use x="83.789062" xlink:href="#DejaVuSans-33"/>
       <use x="147.412109" xlink:href="#DejaVuSans-2e"/>
       <use x="179.199219" xlink:href="#DejaVuSans-34"/>
       <use x="242.822266" xlink:href="#DejaVuSans-35"/>
      </g>
     </g>
    </g>
    <g id="ytick_7">
     <g id="line2d_36">
      <g>
       <use style="stroke:#000000;stroke-width:0.8;" x="57.6" xlink:href="#me9cb8125c7" y="259.130591"/>
      </g>
     </g>
     <g id="text_20">
      <!-- −3.40 -->
      <g transform="translate(19.954687 262.92981)scale(0.1 -0.1)">
       <use xlink:href="#DejaVuSans-2212"/>
       <use x="83.789062" xlink:href="#DejaVuSans-33"/>
       <use x="147.412109" xlink:href="#DejaVuSans-2e"/>
       <use x="179.199219" xlink:href="#DejaVuSans-34"/>
       <use x="242.822266" xlink:href="#DejaVuSans-30"/>
      </g>
     </g>
    </g>
    <g id="ytick_8">
     <g id="line2d_37">
      <g>
       <use style="stroke:#000000;stroke-width:0.8;" x="57.6" xlink:href="#me9cb8125c7" y="233.652036"/>
      </g>
     </g>
     <g id="text_21">
      <!-- −3.35 -->
      <g transform="translate(19.954687 237.451255)scale(0.1 -0.1)">
       <use xlink:href="#DejaVuSans-2212"/>
       <use x="83.789062" xlink:href="#DejaVuSans-33"/>
       <use x="147.412109" xlink:href="#DejaVuSans-2e"/>
       <use x="179.199219" xlink:href="#DejaVuSans-33"/>
       <use x="242.822266" xlink:href="#DejaVuSans-35"/>
      </g>
     </g>
    </g>
    <g id="text_22">
     <!-- bottom -->
     <defs>
      <path d="M 48.6875 27.296875 
Q 48.6875 37.203125 44.609375 42.84375 
Q 40.53125 48.484375 33.40625 48.484375 
Q 26.265625 48.484375 22.1875 42.84375 
Q 18.109375 37.203125 18.109375 27.296875 
Q 18.109375 17.390625 22.1875 11.75 
Q 26.265625 6.109375 33.40625 6.109375 
Q 40.53125 6.109375 44.609375 11.75 
Q 48.6875 17.390625 48.6875 27.296875 
z
M 18.109375 46.390625 
Q 20.953125 51.265625 25.265625 53.625 
Q 29.59375 56 35.59375 56 
Q 45.5625 56 51.78125 48.09375 
Q 58.015625 40.1875 58.015625 27.296875 
Q 58.015625 14.40625 51.78125 6.484375 
Q 45.5625 -1.421875 35.59375 -1.421875 
Q 29.59375 -1.421875 25.265625 0.953125 
Q 20.953125 3.328125 18.109375 8.203125 
L 18.109375 0 
L 9.078125 0 
L 9.078125 75.984375 
L 18.109375 75.984375 
z
" id="DejaVuSans-62"/>
     </defs>
     <g transform="translate(13.875 286.533476)rotate(-90)scale(0.1 -0.1)">
      <use xlink:href="#DejaVuSans-62"/>
      <use x="63.476562" xlink:href="#DejaVuSans-6f"/>
      <use x="124.658203" xlink:href="#DejaVuSans-74"/>
      <use x="163.867188" xlink:href="#DejaVuSans-74"/>
      <use x="203.076172" xlink:href="#DejaVuSans-6f"/>
      <use x="264.257812" xlink:href="#DejaVuSans-6d"/>
     </g>
    </g>
   </g>
   <g id="line2d_38">
    <path clip-path="url(#p321d0c1c97)" d="M 73.832727 242.257673 
L 74.647159 244.268441 
L 75.4598 244.06767 
L 77.087036 236.811377 
L 77.901468 237.213938 
L 78.714272 242.157288 
L 79.528541 242.140472 
L 80.341345 238.537804 
L 81.15594 235.521143 
L 81.968744 237.364771 
L 82.783175 240.14652 
L 83.59598 239.794406 
L 85.223216 233.878796 
L 86.037647 235.789178 
L 86.850289 239.057057 
L 87.664883 238.504172 
L 89.292119 232.873412 
L 90.919355 238.252444 
L 91.732159 238.336524 
L 92.546591 235.504327 
L 93.359232 233.77841 
L 94.173826 234.900995 
L 94.986631 238.621374 
L 95.801062 239.49274 
L 96.613867 235.755546 
L 97.428298 233.828858 
L 98.241102 237.197123 
L 99.055534 239.760775 
L 99.868176 240.498124 
L 100.68277 237.347956 
L 101.495574 235.102276 
L 102.310006 239.107505 
L 103.12281 241.771542 
L 103.937242 242.240857 
L 104.750046 239.392355 
L 105.564315 237.531911 
L 106.377282 240.079257 
L 107.191713 243.916837 
L 108.004518 243.832757 
L 108.818949 241.319553 
L 109.631591 239.442293 
L 110.446185 243.347136 
L 111.258827 245.710017 
L 112.073421 245.827219 
L 112.886225 243.229425 
L 113.700657 241.956007 
L 114.513624 243.497969 
L 115.327893 247.871618 
L 116.140697 248.742984 
L 116.955128 245.039422 
L 117.768095 244.35252 
L 118.582364 245.491921 
L 119.395657 248.726169 
L 120.209763 249.061466 
L 121.022404 247.502688 
L 121.836836 244.687818 
L 122.64964 246.732217 
L 123.464072 250.234499 
L 124.276876 250.670182 
L 125.09147 247.217838 
L 125.903949 245.693201 
L 127.531185 250.251315 
L 128.345779 251.08905 
L 129.973015 245.123501 
L 130.785657 247.201022 
L 131.601228 250.485718 
L 132.413706 250.854138 
L 133.226836 247.620399 
L 134.040942 245.710017 
L 134.853909 245.978052 
L 135.668341 250.8042 
L 136.481145 250.837831 
L 137.295577 247.837986 
L 138.108706 246.279718 
L 139.735617 251.105866 
L 140.550374 251.809583 
L 141.362853 247.770723 
L 142.177284 246.51412 
L 142.990089 248.692537 
L 143.804683 251.591487 
L 144.617162 251.172619 
L 145.431919 249.966465 
L 146.24456 247.553136 
L 147.058992 250.083666 
L 147.871633 253.770413 
L 148.686228 253.988 
L 149.498869 251.189435 
L 150.313464 249.982771 
L 151.126268 252.379284 
L 151.940699 255.412251 
L 152.753504 255.998767 
L 154.38074 252.697766 
L 155.195334 254.624964 
L 156.007813 259.065366 
L 156.823709 259.534681 
L 157.635211 257.1718 
L 158.449806 256.267311 
L 159.262447 258.546113 
L 160.076879 261.411432 
L 160.889846 261.529142 
L 161.704277 259.819531 
L 162.516919 259.400664 
L 163.33135 261.729913 
L 164.144643 265.366213 
L 164.958749 265.617941 
L 165.771391 262.333246 
L 166.585822 262.216044 
L 167.398464 265.165442 
L 168.213058 268.701356 
L 169.025862 268.567338 
L 170.653098 264.964161 
L 171.467367 266.757342 
L 172.280171 270.946526 
L 173.094766 271.617122 
L 173.90757 268.215225 
L 174.722002 267.209841 
L 175.534806 268.96939 
L 176.349237 273.259469 
L 177.162042 272.840092 
L 177.976473 270.728939 
L 178.789278 268.114839 
L 179.603709 269.388258 
L 180.416513 274.39887 
L 181.230945 275.169342 
L 182.043587 270.862956 
L 182.858344 270.427273 
L 183.670985 272.639321 
L 184.485254 275.219789 
L 185.298221 274.834553 
L 186.112653 271.801077 
L 186.925782 270.578106 
L 187.739888 271.86834 
L 188.552693 275.555087 
L 189.367124 276.711304 
L 190.179929 272.253576 
L 190.99436 270.712123 
L 191.807164 272.656137 
L 192.621596 276.476901 
L 193.434563 275.722736 
L 194.248995 273.46024 
L 195.062775 271.667059 
L 195.875742 273.527504 
L 196.689523 277.21425 
L 197.502978 278.454037 
L 198.317084 273.661521 
L 199.129889 272.119559 
L 200.75745 278.387283 
L 201.571393 277.9516 
L 202.384198 275.387438 
L 203.198792 274.248037 
L 204.011759 276.124787 
L 204.825865 280.381235 
L 205.638669 280.19677 
L 206.453101 277.180619 
L 207.265742 275.303868 
L 208.081476 279.526684 
L 208.893141 282.358371 
L 209.707735 280.398051 
L 210.520377 280.297156 
L 211.334646 278.789335 
L 212.962044 285.05655 
L 213.774849 286.011486 
L 214.589443 282.542835 
L 215.402735 280.264033 
L 216.216516 284.939348 
L 217.029483 285.710329 
L 217.843915 283.598667 
L 218.656556 283.632298 
L 219.470988 286.296846 
L 220.283792 300.087878 
L 221.098386 286.162319 
L 221.911028 288.307613 
L 222.725622 283.649114 
L 223.538264 287.134581 
L 224.352695 302.182725 
L 225.1655 297.658243 
L 225.979931 287.151396 
L 226.792735 280.247218 
L 227.607167 296.351193 
L 228.419971 296.803692 
L 229.234403 302.182725 
L 230.047207 290.720432 
L 230.861639 281.906381 
L 231.674443 291.692694 
L 232.488875 300.087878 
L 233.301516 304.026353 
L 234.116273 291.391028 
L 234.929077 284.956164 
L 235.743509 288.173596 
L 236.556313 301.71341 
L 237.370582 301.613024 
L 238.183386 292.027482 
L 238.997818 286.9333 
L 239.810622 284.939348 
L 240.625217 301.043324 
L 241.437858 301.143709 
L 242.25229 293.535813 
L 243.065094 283.833069 
L 243.879526 288.190412 
L 244.692493 295.429379 
L 245.507087 299.836659 
L 246.320217 296.904078 
L 247.133184 283.196615 
L 247.947615 286.28003 
L 248.760582 292.011176 
L 249.5742 299.870291 
L 250.388794 291.558677 
L 251.201273 284.470033 
L 252.015868 286.581696 
L 252.828509 291.927097 
L 253.642941 296.401641 
L 254.455908 291.323765 
L 256.082981 283.7495 
L 256.897412 292.848911 
L 257.710217 296.133097 
L 258.524648 290.77088 
L 259.33729 286.212766 
L 260.152047 286.581696 
L 260.964688 291.960728 
L 261.77912 293.066498 
L 262.592087 292.345964 
L 263.406356 286.296846 
L 264.219323 287.721097 
L 265.033592 290.68731 
L 265.846559 295.077775 
L 267.473632 286.765651 
L 268.288063 290.888081 
L 269.100868 292.932481 
L 269.915299 294.457627 
L 270.728104 289.648295 
L 271.542698 288.726481 
L 272.355339 290.050346 
L 273.169771 294.742477 
L 273.982738 296.217176 
L 274.79717 289.329813 
L 275.609974 288.726481 
L 276.424568 291.240195 
L 277.23721 296.988157 
L 278.051641 294.591644 
L 278.864283 289.665111 
L 279.678714 287.905562 
L 280.491682 290.871265 
L 281.30595 297.356577 
L 282.119243 295.865062 
L 282.933349 289.128532 
L 283.745828 285.358216 
L 284.561561 291.876649 
L 285.373389 297.256191 
L 286.187821 295.244914 
L 287.814894 285.559496 
L 288.627698 289.564216 
L 289.442618 295.463011 
L 290.255097 295.881878 
L 291.069528 285.659882 
L 291.882658 282.911765 
L 292.696601 286.782467 
L 293.509568 293.38498 
L 294.324 292.999744 
L 295.136642 284.201999 
L 295.951236 280.096385 
L 296.76404 282.576467 
L 297.578309 292.597692 
L 298.391113 290.754064 
L 299.205545 282.7273 
L 300.018349 277.046602 
L 300.833269 281.637837 
L 301.645585 287.453063 
L 302.460179 287.603896 
L 304.087252 274.448808 
L 304.900057 277.800767 
L 305.714488 284.721252 
L 306.527293 285.827531 
L 307.341724 279.526684 
L 308.154366 271.78477 
L 308.968797 276.225173 
L 309.781927 282.006767 
L 310.596359 283.246553 
L 311.409 276.510023 
L 312.223594 271.265008 
L 313.036073 271.801077 
L 313.850668 279.191386 
L 314.663635 281.252601 
L 316.29087 268.734478 
L 317.105139 270.628044 
L 317.918106 277.817073 
L 318.732375 278.68844 
L 320.359611 269.33781 
L 321.172415 270.444089 
L 321.986847 276.208357 
L 322.799651 278.001538 
L 324.426887 267.879927 
L 325.241319 269.320994 
L 326.054123 275.689104 
L 326.868554 276.258805 
L 328.49579 267.46106 
L 329.308595 268.349242 
L 330.122863 273.895923 
L 330.93583 275.571903 
L 331.750262 271.700691 
L 332.563066 266.673263 
L 333.377498 268.533707 
L 334.190302 272.538426 
L 335.004734 274.080388 
L 336.632132 265.50023 
L 337.444774 267.109456 
L 338.259205 272.773338 
L 339.07201 272.689259 
L 339.886441 267.74591 
L 340.699246 263.791129 
L 341.513677 265.299459 
L 342.32697 270.008406 
L 343.140913 270.879772 
L 343.953717 264.595741 
L 344.768149 261.66316 
L 346.395385 268.265672 
L 347.208189 267.645524 
L 348.022621 262.902946 
L 348.835425 259.082182 
L 349.650019 261.244292 
L 350.462661 265.919607 
L 351.277092 264.84696 
L 352.089897 258.7637 
L 352.904491 255.764365 
L 353.717133 257.590667 
L 354.53189 261.797177 
L 355.344531 261.277414 
L 356.158963 256.1496 
L 356.971604 252.76452 
L 357.786036 254.540884 
L 358.59884 259.249831 
L 359.413272 258.931349 
L 361.040345 248.240038 
L 361.853312 250.536165 
L 362.667743 257.439834 
L 363.481036 255.663979 
L 365.107784 245.893972 
L 365.922215 249.831938 
L 366.735182 254.825735 
L 367.549451 255.412251 
L 368.362255 248.977387 
L 369.17685 244.201687 
L 369.989491 248.156468 
L 370.803923 254.490946 
L 371.616564 252.831783 
L 372.431159 246.815787 
L 373.243963 242.877821 
L 374.058394 245.324272 
L 374.871361 251.407532 
L 375.685793 252.211635 
L 376.498597 245.022606 
L 377.313029 241.319553 
L 378.125833 245.625938 
L 378.940265 251.625119 
L 379.752906 250.787384 
L 380.567338 247.620399 
L 381.380142 241.503508 
L 382.194736 244.252134 
L 383.007378 251.256699 
L 383.82181 252.111249 
L 385.449045 240.347291 
L 386.261687 245.00579 
L 387.076119 250.552981 
L 387.889086 251.038602 
L 389.516159 241.654341 
L 390.330916 243.464337 
L 391.143557 249.094589 
L 391.957989 250.753752 
L 392.791134 244.955852 
L 393.605728 240.14652 
L 394.418369 242.961391 
L 395.232964 248.977387 
L 396.045768 249.480334 
L 397.672841 238.822654 
L 398.487273 241.201842 
L 398.487273 241.201842 
" style="fill:none;stroke:#1f77b4;stroke-linecap:square;stroke-width:1.5;"/>
   </g>
   <g id="patch_13">
    <path d="M 57.6 307.584 
L 57.6 229.315765 
" style="fill:none;stroke:#000000;stroke-linecap:square;stroke-linejoin:miter;stroke-width:0.8;"/>
   </g>
   <g id="patch_14">
    <path d="M 414.72 307.584 
L 414.72 229.315765 
" style="fill:none;stroke:#000000;stroke-linecap:square;stroke-linejoin:miter;stroke-width:0.8;"/>
   </g>
   <g id="patch_15">
    <path d="M 57.6 307.584 
L 414.72 307.584 
" style="fill:none;stroke:#000000;stroke-linecap:square;stroke-linejoin:miter;stroke-width:0.8;"/>
   </g>
   <g id="patch_16">
    <path d="M 57.6 229.315765 
L 414.72 229.315765 
" style="fill:none;stroke:#000000;stroke-linecap:square;stroke-linejoin:miter;stroke-width:0.8;"/>
   </g>
  </g>
 </g>
 <defs>
  <clipPath id="p3238b6377e">
   <rect height="78.268235" width="357.12" x="57.6" y="41.472"/>
  </clipPath>
  <clipPath id="pe14ac1ad3b">
   <rect height="78.268235" width="357.12" x="57.6" y="135.393882"/>
  </clipPath>
  <clipPath id="p321d0c1c97">
   <rect height="78.268235" width="357.12" x="57.6" y="229.315765"/>
  </clipPath>
 </defs>
</svg>
